<mxfile host="65bd71144e">
    <diagram id="TpldnynNQ4EIsDBAER84" name="SAGA Choreography">
        <mxGraphModel dx="1374" dy="790" grid="1" gridSize="10" guides="1" tooltips="1" connect="1" arrows="1" fold="1" page="1" pageScale="1" pageWidth="850" pageHeight="1100" math="0" shadow="0">
            <root>
                <mxCell id="0"/>
                <mxCell id="1" parent="0"/>
                <mxCell id="28" style="edgeStyle=none;html=1;" edge="1" parent="1" source="2" target="5">
                    <mxGeometry relative="1" as="geometry">
                        <Array as="points">
                            <mxPoint x="360" y="450"/>
                        </Array>
                    </mxGeometry>
                </mxCell>
                <mxCell id="RDzcqziyQ6mc-W3shGx3-41" style="edgeStyle=none;html=1;exitX=0.25;exitY=1;exitDx=0;exitDy=0;" edge="1" parent="1" source="2">
                    <mxGeometry relative="1" as="geometry">
                        <mxPoint x="80" y="460" as="targetPoint"/>
                    </mxGeometry>
                </mxCell>
                <mxCell id="2" value="Orders&lt;br&gt;" style="rounded=1;whiteSpace=wrap;html=1;fillColor=#d80073;fontColor=#ffffff;strokeColor=#A50040;" vertex="1" parent="1">
                    <mxGeometry x="40" y="405" width="120" height="60" as="geometry"/>
                </mxCell>
                <mxCell id="29" style="edgeStyle=none;html=1;entryX=0.933;entryY=0.033;entryDx=0;entryDy=0;entryPerimeter=0;exitX=0;exitY=0.25;exitDx=0;exitDy=0;" edge="1" parent="1" source="5" target="2">
                    <mxGeometry relative="1" as="geometry">
                        <mxPoint x="390" y="410" as="sourcePoint"/>
                    </mxGeometry>
                </mxCell>
                <mxCell id="30" style="edgeStyle=none;html=1;" edge="1" parent="1" source="5" target="20">
                    <mxGeometry relative="1" as="geometry"/>
                </mxCell>
                <mxCell id="5" value="Stock Service" style="rounded=1;whiteSpace=wrap;html=1;fillColor=#60a917;fontColor=#ffffff;strokeColor=#2D7600;" vertex="1" parent="1">
                    <mxGeometry x="400" y="395" width="160" height="70" as="geometry"/>
                </mxCell>
                <mxCell id="8" value="" style="verticalLabelPosition=bottom;verticalAlign=top;html=1;shape=mxgraph.infographic.cylinder;fillColor=#10739E;strokeColor=none;rotation=-90;" vertex="1" parent="1">
                    <mxGeometry x="570" y="-397.5" width="60" height="1025" as="geometry"/>
                </mxCell>
                <mxCell id="11" value="OrderCreated" style="text;html=1;align=center;verticalAlign=middle;resizable=0;points=[];autosize=1;strokeColor=none;fillColor=none;" vertex="1" parent="1">
                    <mxGeometry x="250" y="450" width="90" height="20" as="geometry"/>
                </mxCell>
                <mxCell id="13" value="StockReserved&lt;br&gt;" style="text;html=1;align=center;verticalAlign=middle;resizable=0;points=[];autosize=1;strokeColor=none;fillColor=none;" vertex="1" parent="1">
                    <mxGeometry x="610" y="440" width="100" height="20" as="geometry"/>
                </mxCell>
                <mxCell id="18" value="StockNotReserved" style="text;html=1;align=center;verticalAlign=middle;resizable=0;points=[];autosize=1;strokeColor=none;fillColor=none;" vertex="1" parent="1">
                    <mxGeometry x="230" y="385" width="120" height="20" as="geometry"/>
                </mxCell>
                <mxCell id="31" style="edgeStyle=none;html=1;entryX=0.5;entryY=1;entryDx=0;entryDy=0;" edge="1" parent="1" source="20" target="2">
                    <mxGeometry relative="1" as="geometry">
                        <Array as="points">
                            <mxPoint x="630" y="570"/>
                        </Array>
                    </mxGeometry>
                </mxCell>
                <mxCell id="32" style="edgeStyle=none;html=1;entryX=0.963;entryY=0.014;entryDx=0;entryDy=0;entryPerimeter=0;" edge="1" parent="1" source="20" target="5">
                    <mxGeometry relative="1" as="geometry"/>
                </mxCell>
                <mxCell id="36" value="" style="edgeStyle=none;html=1;" edge="1" parent="1" source="20" target="35">
                    <mxGeometry relative="1" as="geometry"/>
                </mxCell>
                <mxCell id="37" style="edgeStyle=none;html=1;entryX=0.5;entryY=0;entryDx=0;entryDy=0;" edge="1" parent="1" source="20" target="2">
                    <mxGeometry relative="1" as="geometry">
                        <Array as="points">
                            <mxPoint x="760" y="290"/>
                            <mxPoint x="720" y="300"/>
                            <mxPoint x="630" y="280"/>
                            <mxPoint x="200" y="320"/>
                        </Array>
                    </mxGeometry>
                </mxCell>
                <mxCell id="20" value="Payment Service" style="rounded=1;whiteSpace=wrap;html=1;fillColor=#008a00;fontColor=#ffffff;strokeColor=#005700;" vertex="1" parent="1">
                    <mxGeometry x="770" y="395" width="130" height="65" as="geometry"/>
                </mxCell>
                <mxCell id="24" value="PaymentFailed" style="text;html=1;align=center;verticalAlign=middle;resizable=0;points=[];autosize=1;strokeColor=none;fillColor=none;" vertex="1" parent="1">
                    <mxGeometry x="630" y="375" width="100" height="20" as="geometry"/>
                </mxCell>
                <mxCell id="26" value="Payment Succeeded" style="text;html=1;align=center;verticalAlign=middle;resizable=0;points=[];autosize=1;strokeColor=none;fillColor=none;" vertex="1" parent="1">
                    <mxGeometry x="920" y="395" width="130" height="20" as="geometry"/>
                </mxCell>
                <mxCell id="34" value="PaymentFailed" style="text;html=1;align=center;verticalAlign=middle;resizable=0;points=[];autosize=1;strokeColor=none;fillColor=none;" vertex="1" parent="1">
                    <mxGeometry x="640" y="560" width="100" height="20" as="geometry"/>
                </mxCell>
                <mxCell id="35" value="Shipment Service" style="rounded=1;whiteSpace=wrap;html=1;fillColor=#a20025;fontColor=#ffffff;strokeColor=#6F0000;" vertex="1" parent="1">
                    <mxGeometry x="1080" y="395" width="130" height="65" as="geometry"/>
                </mxCell>
                <mxCell id="38" value="Payment Succeeded" style="text;html=1;align=center;verticalAlign=middle;resizable=0;points=[];autosize=1;strokeColor=none;fillColor=none;" vertex="1" parent="1">
                    <mxGeometry x="510" y="260" width="130" height="20" as="geometry"/>
                </mxCell>
                <mxCell id="41" value="Message Qeue: FIFO" style="text;html=1;align=center;verticalAlign=middle;resizable=0;points=[];autosize=1;strokeColor=none;fillColor=none;" vertex="1" parent="1">
                    <mxGeometry x="540" y="60" width="130" height="20" as="geometry"/>
                </mxCell>
            </root>
        </mxGraphModel>
    </diagram>
    <diagram id="SI49Ji3oli8CHqrAlNYF" name="Pub/Sub">
        <mxGraphModel dx="1374" dy="790" grid="1" gridSize="10" guides="1" tooltips="1" connect="1" arrows="1" fold="1" page="1" pageScale="1" pageWidth="850" pageHeight="1100" math="0" shadow="0">
            <root>
                <mxCell id="cVTOYHJz0frywkfjfzR3-0"/>
                <mxCell id="cVTOYHJz0frywkfjfzR3-1" parent="cVTOYHJz0frywkfjfzR3-0"/>
                <mxCell id="TbyrL8SZ6EfSdwVnwyhM-5" value="" style="edgeStyle=none;html=1;" edge="1" parent="cVTOYHJz0frywkfjfzR3-1" source="TbyrL8SZ6EfSdwVnwyhM-0" target="TbyrL8SZ6EfSdwVnwyhM-4">
                    <mxGeometry relative="1" as="geometry"/>
                </mxCell>
                <mxCell id="TbyrL8SZ6EfSdwVnwyhM-8" style="edgeStyle=none;html=1;" edge="1" parent="cVTOYHJz0frywkfjfzR3-1" source="TbyrL8SZ6EfSdwVnwyhM-0" target="TbyrL8SZ6EfSdwVnwyhM-6">
                    <mxGeometry relative="1" as="geometry"/>
                </mxCell>
                <mxCell id="TbyrL8SZ6EfSdwVnwyhM-9" style="edgeStyle=none;html=1;" edge="1" parent="cVTOYHJz0frywkfjfzR3-1" source="TbyrL8SZ6EfSdwVnwyhM-0" target="TbyrL8SZ6EfSdwVnwyhM-7">
                    <mxGeometry relative="1" as="geometry"/>
                </mxCell>
                <mxCell id="TbyrL8SZ6EfSdwVnwyhM-0" value="Message Broker" style="verticalLabelPosition=bottom;verticalAlign=top;html=1;shape=mxgraph.infographic.cylinder;fillColor=#10739E;strokeColor=none;" vertex="1" parent="cVTOYHJz0frywkfjfzR3-1">
                    <mxGeometry x="720" y="130" width="70" height="420" as="geometry"/>
                </mxCell>
                <mxCell id="TbyrL8SZ6EfSdwVnwyhM-2" style="edgeStyle=none;html=1;entryX=0.029;entryY=0.207;entryDx=0;entryDy=0;entryPerimeter=0;" edge="1" parent="cVTOYHJz0frywkfjfzR3-1" source="TbyrL8SZ6EfSdwVnwyhM-1" target="TbyrL8SZ6EfSdwVnwyhM-0">
                    <mxGeometry relative="1" as="geometry"/>
                </mxCell>
                <mxCell id="TbyrL8SZ6EfSdwVnwyhM-1" value="Publisher 1" style="rounded=1;whiteSpace=wrap;html=1;" vertex="1" parent="cVTOYHJz0frywkfjfzR3-1">
                    <mxGeometry x="340" y="290" width="120" height="60" as="geometry"/>
                </mxCell>
                <mxCell id="TbyrL8SZ6EfSdwVnwyhM-4" value="Subscriber 1" style="rounded=1;whiteSpace=wrap;html=1;verticalAlign=top;fillColor=#10739E;strokeColor=none;" vertex="1" parent="cVTOYHJz0frywkfjfzR3-1">
                    <mxGeometry x="425" y="650" width="120" height="60" as="geometry"/>
                </mxCell>
                <mxCell id="TbyrL8SZ6EfSdwVnwyhM-6" value="Subscriber 2" style="rounded=1;whiteSpace=wrap;html=1;verticalAlign=top;fillColor=#10739E;strokeColor=none;" vertex="1" parent="cVTOYHJz0frywkfjfzR3-1">
                    <mxGeometry x="695" y="660" width="120" height="60" as="geometry"/>
                </mxCell>
                <mxCell id="TbyrL8SZ6EfSdwVnwyhM-7" value="Subscriber 3" style="rounded=1;whiteSpace=wrap;html=1;verticalAlign=top;fillColor=#10739E;strokeColor=none;" vertex="1" parent="cVTOYHJz0frywkfjfzR3-1">
                    <mxGeometry x="950" y="650" width="120" height="60" as="geometry"/>
                </mxCell>
            </root>
        </mxGraphModel>
    </diagram>
    <diagram id="Bct70jsKmJX3Dq6PXQXL" name="CQRS">
        <mxGraphModel dx="948" dy="545" grid="1" gridSize="10" guides="1" tooltips="1" connect="1" arrows="1" fold="1" page="1" pageScale="1" pageWidth="850" pageHeight="1100" math="0" shadow="0">
            <root>
                <mxCell id="nTxciiH1WssF20928sV6-0"/>
                <mxCell id="nTxciiH1WssF20928sV6-1" parent="nTxciiH1WssF20928sV6-0"/>
                <mxCell id="nTxciiH1WssF20928sV6-8" style="edgeStyle=none;html=1;" edge="1" parent="nTxciiH1WssF20928sV6-1" source="nTxciiH1WssF20928sV6-2" target="nTxciiH1WssF20928sV6-4">
                    <mxGeometry relative="1" as="geometry"/>
                </mxCell>
                <mxCell id="nTxciiH1WssF20928sV6-11" style="edgeStyle=none;html=1;" edge="1" parent="nTxciiH1WssF20928sV6-1" source="nTxciiH1WssF20928sV6-2" target="nTxciiH1WssF20928sV6-10">
                    <mxGeometry relative="1" as="geometry"/>
                </mxCell>
                <mxCell id="y-VFvOegN5lzq2CWS-vt-1" value="" style="edgeStyle=none;html=1;exitX=1;exitY=0.75;exitDx=0;exitDy=0;" edge="1" parent="nTxciiH1WssF20928sV6-1" source="nTxciiH1WssF20928sV6-2" target="y-VFvOegN5lzq2CWS-vt-0">
                    <mxGeometry relative="1" as="geometry">
                        <mxPoint x="480" y="152" as="sourcePoint"/>
                    </mxGeometry>
                </mxCell>
                <mxCell id="nTxciiH1WssF20928sV6-2" value="ICommand" style="aspect=fixed;perimeter=ellipsePerimeter;html=1;align=center;shadow=0;dashed=0;spacingTop=3;image;image=img/lib/active_directory/interface.svg;" vertex="1" parent="nTxciiH1WssF20928sV6-1">
                    <mxGeometry x="390" y="140" width="50" height="23.5" as="geometry"/>
                </mxCell>
                <mxCell id="nTxciiH1WssF20928sV6-4" value="UpdateOrderStateToFailedCommand" style="swimlane;fontStyle=1;align=center;verticalAlign=middle;childLayout=stackLayout;horizontal=1;startSize=29;horizontalStack=0;resizeParent=1;resizeParentMax=0;resizeLast=0;collapsible=0;marginBottom=0;html=1;" vertex="1" parent="nTxciiH1WssF20928sV6-1">
                    <mxGeometry x="50" y="260" width="280" height="54" as="geometry"/>
                </mxCell>
                <mxCell id="nTxciiH1WssF20928sV6-10" value="UpdateOrderStateToSuccessCommand" style="swimlane;fontStyle=1;align=center;verticalAlign=middle;childLayout=stackLayout;horizontal=1;startSize=29;horizontalStack=0;resizeParent=1;resizeParentMax=0;resizeLast=0;collapsible=0;marginBottom=0;html=1;" vertex="1" parent="nTxciiH1WssF20928sV6-1">
                    <mxGeometry x="30" y="150" width="280" height="54" as="geometry"/>
                </mxCell>
                <mxCell id="nTxciiH1WssF20928sV6-12" value="OrderID" style="text;html=1;align=center;verticalAlign=middle;resizable=0;points=[];autosize=1;strokeColor=none;fillColor=none;" vertex="1" parent="nTxciiH1WssF20928sV6-1">
                    <mxGeometry x="110" y="180" width="60" height="20" as="geometry"/>
                </mxCell>
                <mxCell id="nTxciiH1WssF20928sV6-18" style="edgeStyle=none;html=1;entryX=0.107;entryY=-0.048;entryDx=0;entryDy=0;entryPerimeter=0;" edge="1" parent="nTxciiH1WssF20928sV6-1" source="nTxciiH1WssF20928sV6-14" target="nTxciiH1WssF20928sV6-17">
                    <mxGeometry relative="1" as="geometry"/>
                </mxCell>
                <mxCell id="nTxciiH1WssF20928sV6-14" value="IHandler&lt;br&gt;" style="aspect=fixed;perimeter=ellipsePerimeter;html=1;align=center;shadow=0;dashed=0;spacingTop=3;image;image=img/lib/active_directory/interface.svg;" vertex="1" parent="nTxciiH1WssF20928sV6-1">
                    <mxGeometry x="690" y="160" width="50" height="23.5" as="geometry"/>
                </mxCell>
                <mxCell id="nTxciiH1WssF20928sV6-17" value="CommandHandler" style="swimlane;fontStyle=1;align=center;verticalAlign=middle;childLayout=stackLayout;horizontal=1;startSize=29;horizontalStack=0;resizeParent=1;resizeParentMax=0;resizeLast=0;collapsible=0;marginBottom=0;html=1;" vertex="1" parent="nTxciiH1WssF20928sV6-1">
                    <mxGeometry x="720" y="250" width="280" height="54" as="geometry"/>
                </mxCell>
                <mxCell id="y-VFvOegN5lzq2CWS-vt-2" style="edgeStyle=none;html=1;entryX=0.375;entryY=-0.022;entryDx=0;entryDy=0;entryPerimeter=0;" edge="1" parent="nTxciiH1WssF20928sV6-1" source="y-VFvOegN5lzq2CWS-vt-0" target="nTxciiH1WssF20928sV6-17">
                    <mxGeometry relative="1" as="geometry"/>
                </mxCell>
                <mxCell id="y-VFvOegN5lzq2CWS-vt-0" value="Mediator" style="rounded=1;whiteSpace=wrap;html=1;" vertex="1" parent="nTxciiH1WssF20928sV6-1">
                    <mxGeometry x="520" y="50" width="120" height="190" as="geometry"/>
                </mxCell>
            </root>
        </mxGraphModel>
    </diagram>
</mxfile>